<svg xmlns="http://www.w3.org/2000/svg" width="103" height="36"><path style="stroke:none;fill-rule:nonzero;fill:#ff70d9;fill-opacity:1" d="M88.234 5.242c-2.824 0-5.586.727-7.933 2.09-2.352 1.363-4.18 3.297-5.262 5.563a10.87 10.87 0 0 0-.812 7.16c.55 2.402 1.91 4.61 3.906 6.343 2 1.735 4.543 2.915 7.312 3.391 2.77.48 5.645.234 8.254-.703 2.61-.938 4.84-2.527 6.406-4.566 1.57-2.036 2.41-4.434 2.41-6.883-.003-3.285-1.511-6.438-4.187-8.758-2.676-2.324-6.308-3.633-10.094-3.637Zm0 20.016c-1.738 0-3.433-.445-4.879-1.285-1.445-.836-2.574-2.028-3.238-3.418a6.727 6.727 0 0 1-.5-4.407c.34-1.476 1.176-2.835 2.406-3.902 1.227-1.066 2.793-1.793 4.497-2.086 1.699-.293 3.449-.144 5.074.434 1.605.578 2.976 1.554 3.945 2.808.961 1.254 1.477 2.727 1.477 4.235-.004 2.02-.93 3.957-2.575 5.386-1.648 1.426-3.879 2.23-6.207 2.235ZM55.54 5.246c-2.824 0-5.586.727-7.934 2.086-2.347 1.363-4.18 3.297-5.261 5.563-1.082 2.265-1.364 4.757-.813 7.16.551 2.402 1.914 4.613 3.91 6.343 1.996 1.735 4.54 2.915 7.313 3.395 2.77.477 5.64.23 8.25-.707 2.61-.938 4.84-2.527 6.41-4.563 1.57-2.039 2.406-4.433 2.406-6.886-.004-3.285-1.511-6.438-4.187-8.758-2.676-2.324-6.309-3.629-10.094-3.633Zm0 20.012a9.836 9.836 0 0 1-4.586-1.117c-1.383-.735-2.504-1.786-3.238-3.036a6.758 6.758 0 0 1-.938-4.054c.125-1.399.692-2.742 1.641-3.88.945-1.14 2.238-2.026 3.734-2.57a9.987 9.987 0 0 1 4.73-.496c1.598.215 3.098.81 4.333 1.72 1.234.905 2.156 2.093 2.664 3.425h-8.34v4.773h8.34c-.582 1.52-1.7 2.844-3.195 3.786-1.496.941-3.297 1.449-5.145 1.449Zm0 0"/><path style="fill:none;stroke-width:1.5;stroke-linecap:square;stroke-linejoin:round;stroke:#ff70d9;stroke-opacity:1;stroke-miterlimit:4" d="M33.177 28.979c-.663-.884-1.64-1.566-3.063-1.345-3.284.513-1.54-2.052-3.9-1.024-1.889.819-3.252 3.147-3.698 4.207-.137-.65-.655-2.071-1.64-2.565-1.234-.618-1.644.41-2.364-.618-.72-1.024-.72-2.461-1.334-3.899-.616-1.437 2.054-3.593 3.698-2.774 1.64.823 2.67.31 3.49 1.542.82 1.232 1.849 2.77 1.849-1.542s2.05-6.263 2.974-6.159c.925.105 3.8-.923 3.289-1.95-.515-1.029-3.289-1.538-3.289-2.466 0-.923 1.235-2.874 0-3.798-1.23-.923-4.31-2.77-6.673-2.565-2.36.205-3.087 1.128-3.087 1.951 0 .823 3.087 2.36 1.447 3.388-1.644 1.024-6.983 2.666-6.983 1.024s-.31-5.13.72-5.13c1.025 0 1.334-2.566 1.95-2.466.615.105 3.183-1.028 4.313-.514.346.161 1.483-.136 2.762-.67m9.54 27.373a17.446 17.446 0 0 0 3.428-10.427c0-8.106-5.495-14.93-12.968-16.946m9.54 27.373c-3.197 4.323-8.334 7.13-14.123 7.13-1.03 0-2.042-.089-3.023-.261m0 0c.133-.763.305-1.393.53-1.747.925-1.437 4.004-.41 4.314-1.128.306-.718-1.03-1.537-2.364-2.156-1.334-.614-3.594-1.232-3.9-4.207-.309-2.98-1.744-2.465-2.053-2.875-.31-.41-3.904-1.541-5.034-3.593-1.13-2.056 0-5.544 0-6.468 0-.654-2.83-1.357-4.74-1.722m13.247 23.896C7.775 34.414 1.499 27.216 1.499 18.552c0-2.332.459-4.56 1.287-6.6m0 0C5.395 5.528 11.694 1 19.055 1c1.588 0 3.123.208 4.583.606" transform="scale(.9717 .97297)"/></svg>